<svg width="153" height="32" viewBox="0 0 153 32" fill="none" xmlns="http://www.w3.org/2000/svg">
<path fill-rule="evenodd" clip-rule="evenodd" d="M1.06665 30.9338H30.9325V1.06848H1.06665V30.9338Z" fill="#FEE600"/>
<path fill-rule="evenodd" clip-rule="evenodd" d="M1.06664 30.9334H30.9324V1.06802H1.06664V30.9334ZM0 32H32V0H0V32Z" fill="black"/>
<path fill-rule="evenodd" clip-rule="evenodd" d="M16.0003 19.6483L6.80917 28.838L3.16245 25.1959L12.3545 16.003L10.437 14.0841V10.2957L9.10533 8.96263V12.2665L7.94621 13.4261L3.28623 8.76476L2.13354 9.91699C2.14183 9.04776 2.31531 6.5321 4.44904 4.43472C6.75165 2.21954 9.23832 3.21761 10.0887 4.0689L14.7464 8.72795L13.5582 9.91469L16.0003 12.3576L18.4419 9.91469L17.2542 8.72795L21.911 4.0689C22.7613 3.21761 25.248 2.21954 27.5506 4.43472C29.6848 6.5321 29.8583 9.04776 29.867 9.91699L28.7143 8.76476L24.0539 13.4261L22.8952 12.2665V8.96263L21.5626 10.2957V14.0841L19.6452 16.003L28.8376 25.1959L25.1914 28.838L16.0003 19.6483Z" fill="black"/>
<g clip-path="url(#clip0_2997_4253)">
<path fill-rule="evenodd" clip-rule="evenodd" d="M143.631 12.8098H146.721V9.33387H149.563V12.8098H152.653V4.11269H149.563V7.17387H146.721V4.11269H143.631V12.8098ZM124.91 6.59763C125.561 6.16499 126.445 5.85799 127.206 5.85799C127.594 5.85799 128.441 5.91414 128.441 6.65286C128.441 7.37225 127.698 7.38974 127.397 7.38974H125.88V9.27956H127.222C127.665 9.27956 128.494 9.31638 128.494 10.0187C128.494 10.3059 128.319 10.8665 127.239 10.8665C126.162 10.8665 125.474 10.5766 124.572 10.0362L123.779 12.0899C125.474 13.0472 127.01 13.137 127.717 13.137C131.249 13.137 131.691 11.1178 131.691 10.4528C131.691 9.53316 131.144 8.59654 129.907 8.30749V8.27205C130.684 7.92962 131.178 7.17387 131.178 6.23771C131.178 4.20244 129.007 3.78867 127.681 3.78867C126.445 3.78867 125.014 4.14813 124.08 4.65211L124.91 6.59763ZM118.221 2.97769C119.618 2.97769 121.065 2.43826 121.7 0.959911L119.688 0.206006C119.441 1.21489 118.576 1.2669 118.221 1.2669C117.868 1.2669 117.004 1.21489 116.758 0.206006L114.745 0.959911C115.378 2.43826 116.828 2.97769 118.221 2.97769ZM113.403 4.11269V12.8098H116.403L119.458 8.02121V12.8098H122.549V4.11269H119.582L116.49 8.77558V4.11269H113.403ZM92.9157 10.9379V6.1116C91.8737 6.09272 90.8108 6.86826 90.8108 8.52474C90.8108 10.1817 91.8737 10.9549 92.9157 10.9379ZM95.6171 6.1116V10.9379C96.6596 10.9549 97.7184 10.1817 97.7184 8.52474C97.7184 6.86826 96.6596 6.09272 95.6171 6.1116ZM92.7202 16.5945V12.94C90.883 12.957 87.844 12.2165 87.844 8.45201C87.844 4.7078 90.8671 3.96863 92.7202 3.98566V0.206006H95.8104V3.98566C97.6667 3.96863 100.685 4.7078 100.685 8.45201C100.685 12.2165 97.6481 12.957 95.8104 12.94V16.5945H92.7202ZM79.0168 10.9379V6.1116C77.9748 6.09272 76.9146 6.86826 76.9146 8.52474C76.9146 10.1817 77.9748 10.9549 79.0168 10.9379ZM81.7205 6.1116V10.9379C82.7602 10.9549 83.8203 10.1817 83.8203 8.52474C83.8203 6.86826 82.7602 6.09272 81.7205 6.1116ZM78.8221 16.5945V12.94C76.984 12.957 73.9473 12.2165 73.9473 8.45201C73.9473 4.7078 76.9677 3.96863 78.8221 3.98566V0.206006H81.9123V3.98566C83.7672 3.96863 86.7857 4.7078 86.7857 8.45201C86.7857 12.2165 83.7505 12.957 81.9123 12.94V16.5945H78.8221ZM68.1539 2.97769C69.5507 2.97769 70.9987 2.43826 71.6329 0.959911L69.6206 0.206006C69.3724 1.21489 68.5069 1.2669 68.1539 1.2669C67.801 1.2669 66.9355 1.21489 66.6868 0.206006L64.6745 0.959911C65.311 2.43826 66.7595 2.97769 68.1539 2.97769ZM63.3345 4.11269V12.8098H66.3344L69.3906 8.02121V12.8098H72.4821V4.11269H69.5144L66.4247 8.77558V4.11269H63.3345ZM44.4644 2.7784V5.67803H45.5958C47.1327 5.67803 47.2919 4.75889 47.2919 4.22039C47.2919 3.58937 47.0796 2.7784 45.5958 2.7784H44.6059H44.4644ZM41.1461 12.8098V0.00671387H46.3552C49.8709 0.00671387 50.8593 2.49027 50.8593 4.22039C50.8593 5.96615 49.8537 8.45201 46.3552 8.45201H44.4644V12.8098H41.1461ZM111.477 4.09842V12.8098H108.395V11.8418H108.362C107.82 12.709 106.753 13.0993 105.737 13.0993C103.165 13.0993 101.353 10.9429 101.353 8.44695C101.353 5.95004 103.13 3.8103 105.705 3.8103C106.703 3.8103 107.752 4.18357 108.395 4.9476V4.09842H111.477ZM106.517 6.49315C105.264 6.49315 104.536 7.39388 104.536 8.46214C104.536 9.56584 105.264 10.415 106.517 10.415C107.77 10.415 108.498 9.56584 108.498 8.46214C108.498 7.39388 107.77 6.49315 106.517 6.49315ZM61.4084 4.09842V12.8098H58.327V11.8418H58.2931C57.7516 12.709 56.6854 13.0993 55.668 13.0993C53.0961 13.0993 51.2844 10.9429 51.2844 8.44695C51.2844 5.95004 53.063 3.8103 55.6354 3.8103C56.6341 3.8103 57.6841 4.18357 58.327 4.9476V4.09842H61.4084ZM56.4484 6.49315C55.1954 6.49315 54.4668 7.39388 54.4668 8.46214C54.4668 9.56584 55.1954 10.415 56.4484 10.415C57.7004 10.415 58.4281 9.56584 58.4281 8.46214C58.4281 7.39388 57.7004 6.49315 56.4484 6.49315ZM142.11 8.83035V9.15437H135.625C135.625 10.4113 136.288 11.0898 137.554 11.0898C138.218 11.0898 138.69 10.8698 139.028 10.2917H141.992C141.499 12.3467 139.553 13.2815 137.573 13.2815C134.697 13.2815 132.545 11.6508 132.545 8.64302C132.545 5.73971 134.526 3.99256 137.353 3.99256C140.365 3.99256 142.11 5.85891 142.11 8.83035ZM135.677 7.37133H139.247C139.098 6.53918 138.335 5.99699 137.505 5.99699C136.608 5.99699 135.862 6.4706 135.677 7.37133ZM46.08 26.6921H45.1274L44.6567 29.4081H45.5632C47.5913 29.4081 47.9862 28.8415 48.1025 28.1134C48.2325 27.3121 48.0737 26.6921 46.08 26.6921ZM51.6583 28.1507C51.5172 29.0104 51.2332 29.8799 50.6037 30.51C49.2167 31.8907 47.1243 32.0017 45.7969 32.0067H40.6064L42.811 19.2041H51.6448L51.2318 21.725H45.89L45.4775 24.2799H47.0247C48.1668 24.2799 49.6316 24.4313 50.675 25.3132C51.4432 25.9626 51.8525 26.942 51.6583 28.1507ZM60.9493 29.7818H56.0745L54.7606 32.0067H51.0051L58.3978 19.2041H62.2609L65.2328 32.0067H61.4596L60.9493 29.7818ZM60.4218 27.2361L59.6638 23.161H59.627L57.4783 27.2361H60.4218ZM84.9815 19.2041H81.4141L79.2598 32.0053L82.7965 32.0058L83.7333 26.4546H83.7691L87.4049 32.0067L91.9911 32.0058L87.2173 25.2648L93.6574 19.2041H89.2692L84.1015 24.4838H84.0624L84.9815 19.2041ZM71.292 19.2041L70.5052 23.9766H75.2231L76.0085 19.2041H79.446L77.355 32.0067H73.9297L74.8176 26.5025H70.1025L69.2108 32.0067H65.7584L67.8671 19.2041H71.292Z" fill="black"/>
</g>
<defs>
<clipPath id="clip0_2997_4253">
<rect width="113" height="32" fill="white" transform="translate(40)"/>
</clipPath>
</defs>
</svg>
